<svg width="96" height="94" viewBox="0 0 96 94" fill="none" xmlns="http://www.w3.org/2000/svg">
<mask id="path-1-outside-1_1_4" maskUnits="userSpaceOnUse" x="0" y="0" width="96" height="94" fill="black">
<rect fill="white" width="96" height="94"/>
<path d="M92.1842 34.4816C94.9887 43.9545 94.5345 54.0663 90.8913 63.262C87.2481 72.4577 80.6178 80.2279 72.0201 85.3777C63.4223 90.5275 53.3333 92.7716 43.3046 91.765C33.276 90.7583 23.863 86.5566 16.5135 79.8061C9.16399 73.0555 4.28489 64.13 2.62659 54.4021C0.968295 44.6743 2.62264 34.6829 7.3352 25.9646C12.0478 17.2462 19.5575 10.2838 28.7096 6.14803C37.8616 2.01226 48.1491 0.932211 57.9898 3.07398L48 47L92.1842 34.4816Z"/>
</mask>
<path d="M92.1842 34.4816C94.9887 43.9545 94.5345 54.0663 90.8913 63.262C87.2481 72.4577 80.6178 80.2279 72.0201 85.3777C63.4223 90.5275 53.3333 92.7716 43.3046 91.765C33.276 90.7583 23.863 86.5566 16.5135 79.8061C9.16399 73.0555 4.28489 64.13 2.62659 54.4021C0.968295 44.6743 2.62264 34.6829 7.3352 25.9646C12.0478 17.2462 19.5575 10.2838 28.7096 6.14803C37.8616 2.01226 48.1491 0.932211 57.9898 3.07398L48 47L92.1842 34.4816Z" stroke="white" stroke-width="4" mask="url(#path-1-outside-1_1_4)"/>
</svg>
